<?xml version="1.0" encoding="UTF-8"?>
<!DOCTYPE svg PUBLIC "-//W3C//DTD SVG 1.1//EN" "http://www.w3.org/Graphics/SVG/1.1/DTD/svg11.dtd">
<!-- Creator: CorelDRAW X7 -->
<svg xmlns="http://www.w3.org/2000/svg" xml:space="preserve" width="0.639996in" height="0.639996in" version="1.1" style="shape-rendering:geometricPrecision; text-rendering:geometricPrecision; image-rendering:optimizeQuality; fill-rule:evenodd; clip-rule:evenodd"
viewBox="0 0 640 640"
 xmlns:xlink="http://www.w3.org/1999/xlink">
 <defs>
  <style type="text/css">
   <![CDATA[
    .fil1 {fill:#A9ABAE;fill-opacity:0.250980}
    .fil0 {fill:#A9ABAE;fill-rule:nonzero;fill-opacity:0.501961}
   ]]>
  </style>
 </defs>
 <g id="Layer_x0020_1">
  <metadata id="CorelCorpID_0Corel-Layer"/>
  <path class="fil0" d="M1 17c0,0 -1,0 -1,0l0 -14c11,-2 21,-3 32,-3 11,0 22,1 33,3 11,2 21,4 31,4 10,0 21,-2 31,-4 11,-2 22,-3 33,-3 11,0 22,1 33,3 11,2 21,4 31,4 10,0 21,-2 31,-4 11,-2 22,-3 33,-3 11,0 22,1 33,3 11,2 21,4 31,4 10,0 21,-2 31,-4 11,-2 22,-3 33,-3 11,0 22,1 33,3 11,2 21,4 31,4 10,0 21,-2 31,-4 11,-2 22,-3 33,-3 11,0 22,1 33,3 11,2 21,4 31,4 10,0 21,-2 31,-4 0,0 1,0 1,0l0 14c-11,2 -21,3 -32,3 -11,0 -22,-1 -33,-3 -11,-2 -21,-3 -31,-3 -10,0 -21,1 -31,3 -11,2 -22,3 -33,3 -11,0 -22,-1 -33,-3 -11,-2 -21,-3 -31,-3 -10,0 -21,1 -31,3 -11,2 -22,3 -33,3 -11,0 -22,-1 -33,-3 -11,-2 -21,-3 -31,-3 -10,0 -21,1 -31,3 -11,2 -22,3 -33,3 -11,0 -22,-1 -33,-3 -11,-2 -21,-3 -31,-3 -10,0 -21,1 -31,3 -11,2 -22,3 -33,3 -11,0 -22,-1 -33,-3 -11,-2 -21,-3 -31,-3 -10,0 -21,1 -31,3z"/>
  <path class="fil1" d="M0 17l0 623 640 0 0 -623c-11,2 -21,3 -32,3 -11,0 -22,-1 -33,-3 -11,-2 -21,-3 -31,-3 -10,0 -21,1 -31,3 -11,2 -22,3 -33,3 -11,0 -22,-1 -33,-3 -11,-2 -21,-3 -31,-3 -10,0 -21,1 -31,3 -11,2 -22,3 -33,3 -11,0 -22,-1 -33,-3 -11,-2 -21,-3 -31,-3 -10,0 -21,1 -31,3 -11,2 -22,3 -33,3 -11,0 -22,-1 -33,-3 -11,-2 -21,-3 -31,-3 -10,0 -21,1 -31,3 -11,2 -22,3 -33,3 -11,0 -22,-1 -33,-3 -11,-2 -21,-3 -31,-3 -10,0 -21,1 -31,3 0,0 -1,0 -1,0z"/>
 </g>
</svg>
